<svg width="23" height="25" viewBox="0 0 23 25" fill="none" xmlns="http://www.w3.org/2000/svg">
<path d="M22.1797 7.8125C22.502 7.8125 22.7656 7.54883 22.7656 7.22656V5.27344C22.7656 4.95117 22.502 4.6875 22.1797 4.6875H21.2031V2.34375C21.2031 1.0498 20.1533 0 18.8594 0H3.23438C1.94043 0 0.890625 1.0498 0.890625 2.34375V22.6562C0.890625 23.9502 1.94043 25 3.23438 25H18.8594C20.1533 25 21.2031 23.9502 21.2031 22.6562V20.3125H22.1797C22.502 20.3125 22.7656 20.0488 22.7656 19.7266V17.7734C22.7656 17.4512 22.502 17.1875 22.1797 17.1875H21.2031V14.0625H22.1797C22.502 14.0625 22.7656 13.7988 22.7656 13.4766V11.5234C22.7656 11.2012 22.502 10.9375 22.1797 10.9375H21.2031V7.8125H22.1797ZM11.0469 6.25C12.7705 6.25 14.1719 7.65137 14.1719 9.375C14.1719 11.0986 12.7705 12.5 11.0469 12.5C9.32324 12.5 7.92188 11.0986 7.92188 9.375C7.92188 7.65137 9.32324 6.25 11.0469 6.25ZM16.5156 17.8125C16.5156 18.3301 16.0273 18.75 15.4219 18.75H6.67188C6.06641 18.75 5.57812 18.3301 5.57812 17.8125V16.875C5.57812 15.3223 7.04785 14.0625 8.85938 14.0625H9.10352C9.7041 14.3115 10.3584 14.4531 11.0469 14.4531C11.7354 14.4531 12.3945 14.3115 12.9902 14.0625H13.2344C15.0459 14.0625 16.5156 15.3223 16.5156 16.875V17.8125Z" fill="black"/>
</svg>
