<svg width="18" height="19" viewBox="0 0 18 19" fill="none" xmlns="http://www.w3.org/2000/svg">
<path d="M17.25 0.605469H0.75C0.335786 0.605469 0 0.941255 0 1.35547V17.8555C0 18.2697 0.335786 18.6055 0.75 18.6055H9.61436V11.6349H7.26862V8.91837H9.61436V6.91499C9.61436 4.59007 11.0343 3.32411 13.1083 3.32411C14.1018 3.32411 14.9556 3.39808 15.2044 3.43114V5.86081L13.766 5.86146C12.6381 5.86146 12.4197 6.39744 12.4197 7.18397V8.91837H15.1097L14.7595 11.6349H12.4197V18.6055H17.25C17.6642 18.6055 18 18.2697 18 17.8555V1.35547C18 0.941255 17.6642 0.605469 17.25 0.605469Z" fill="#7D818D"/>
</svg>
