<svg width="18" height="19" viewBox="0 0 18 19" fill="none" xmlns="http://www.w3.org/2000/svg">
<path fill-rule="evenodd" clip-rule="evenodd" d="M0.75 0.605469H17.25C17.6625 0.605469 18 0.942969 18 1.35547V17.8555C18 18.268 17.6625 18.6055 17.25 18.6055H0.75C0.3375 18.6055 0 18.268 0 17.8555V1.35547C0 0.942969 0.3375 0.605469 0.75 0.605469ZM2.6625 15.943H5.325V7.35547H2.6625V15.943ZM4.0125 6.19297C3.15 6.19297 2.475 5.51797 2.475 4.65547C2.475 3.79297 3.15 3.11797 4.0125 3.11797C4.875 3.11797 5.55 3.79297 5.55 4.65547C5.55 5.48047 4.875 6.19297 4.0125 6.19297ZM12.675 15.943H15.3V11.218C15.3 8.89297 14.8125 7.13047 12.1125 7.13047C10.8375 7.13047 9.9375 7.84297 9.6 8.51797H9.5625V7.35547H7.0125V15.943H9.675V11.7055C9.675 10.5805 9.9 9.49297 11.2875 9.49297C12.675 9.49297 12.675 10.768 12.675 11.7805V15.943Z" fill="#7D818D"/>
</svg>
