<svg width="17" height="16" viewBox="0 0 17 16" fill="none" xmlns="http://www.w3.org/2000/svg">
<path fill-rule="evenodd" clip-rule="evenodd" d="M17 2.34516C16.3625 2.65444 15.6896 2.84774 14.9812 2.96372C15.6896 2.4998 16.2563 1.76526 16.5042 0.876087C15.8313 1.30135 15.0875 1.61062 14.2729 1.80392C13.6354 1.06939 12.7146 0.605469 11.7229 0.605469C9.81042 0.605469 8.25208 2.3065 8.25208 4.39413C8.25208 4.70341 8.2875 4.97403 8.35833 5.24464C5.48958 5.09 2.90417 3.58227 1.16875 1.26269C0.885417 1.84258 0.708333 2.46114 0.708333 3.15702C0.708333 4.47145 1.31042 5.63124 2.26667 6.32712C1.7 6.28846 1.16875 6.13382 0.672917 5.8632V5.90186C0.672917 7.75753 1.87708 9.30392 3.47083 9.65186C3.1875 9.72918 2.86875 9.76784 2.55 9.76784C2.3375 9.76784 2.08958 9.72918 1.87708 9.69052C2.3375 11.1983 3.6125 12.3194 5.13542 12.3194C3.93125 13.3245 2.44375 13.9431 0.814583 13.9431C0.53125 13.9431 0.247917 13.9431 0 13.9044C1.55833 14.9869 3.36458 15.6055 5.34792 15.6055C11.7583 15.6055 15.2646 9.8065 15.2646 4.78073C15.2646 4.62609 15.2646 4.43279 15.2646 4.27815C15.9375 3.77557 16.5396 3.11836 17 2.34516Z" fill="#68D585"/>
</svg>
