<svg width="18" height="19" viewBox="0 0 18 19" fill="none" xmlns="http://www.w3.org/2000/svg">
<path fill-rule="evenodd" clip-rule="evenodd" d="M5.28937 0.659469C6.24937 0.615969 6.55575 0.605469 9 0.605469C11.4443 0.605469 11.7506 0.615969 12.7106 0.659469C14.1739 0.726219 15.4583 1.08472 16.4895 2.11597C17.5211 3.14759 17.8792 4.43234 17.946 5.89484C17.9895 6.85484 18 7.16122 18 9.60547C18 12.0497 17.9895 12.3561 17.946 13.3161C17.8792 14.7793 17.5208 16.0637 16.4895 17.095C15.4579 18.1266 14.1727 18.4847 12.7106 18.5515C11.7506 18.595 11.4443 18.6055 9 18.6055C6.55575 18.6055 6.24937 18.595 5.28937 18.5515C3.82612 18.4847 2.54175 18.1262 1.5105 17.095C0.478875 16.0633 0.12075 14.7786 0.054 13.3161C0.0105 12.3561 0 12.0497 0 9.60547C0 7.16122 0.0105 6.85484 0.054 5.89484C0.12075 4.43159 0.47925 3.14722 1.5105 2.11597C2.54212 1.08434 3.82687 0.726219 5.28937 0.659469ZM12.6368 2.27947C11.6876 2.23597 11.403 2.22697 9 2.22697C6.597 2.22697 6.31238 2.23634 5.36325 2.27947C4.33913 2.32634 3.3885 2.53147 2.65725 3.26272C1.926 3.99397 1.72088 4.94459 1.674 5.96872C1.6305 6.91784 1.6215 7.20247 1.6215 9.60547C1.6215 12.0085 1.63087 12.2931 1.674 13.2422C1.72088 14.2663 1.926 15.217 2.65725 15.9482C3.3885 16.6795 4.33913 16.8846 5.36325 16.9315C6.312 16.975 6.59663 16.984 9 16.984C11.4034 16.984 11.688 16.9746 12.6368 16.9315C13.6609 16.8846 14.6115 16.6795 15.3427 15.9482C16.074 15.217 16.2791 14.2663 16.326 13.2422C16.3695 12.2931 16.3785 12.0085 16.3785 9.60547C16.3785 7.20247 16.3691 6.91784 16.326 5.96872C16.2791 4.94459 16.074 3.99397 15.3427 3.26272C14.6115 2.53147 13.6609 2.32634 12.6368 2.27947Z" fill="#7D818D"/>
<path fill-rule="evenodd" clip-rule="evenodd" d="M4.90918 10.0146C4.90918 7.5295 6.92366 5.51465 9.40918 5.51465C11.8947 5.51465 13.9092 7.52913 13.9092 10.0146C13.9092 12.5002 11.8947 14.5146 9.40918 14.5146C6.92366 14.5146 4.90918 12.4998 4.90918 10.0146ZM6.48805 10.0146C6.48805 11.6278 7.79599 12.9358 9.40918 12.9358C11.0224 12.9358 12.3303 11.6278 12.3303 10.0146C12.3303 8.40145 11.0224 7.09352 9.40918 7.09352C7.79599 7.09352 6.48805 8.40145 6.48805 10.0146Z" fill="#7D818D"/>
<circle cx="13.4997" cy="5.1052" r="1.22727" fill="#7D818D"/>
</svg>
