<svg width="26" height="25" viewBox="0 0 26 25" fill="none" xmlns="http://www.w3.org/2000/svg">
<path d="M16.2666 9.49219V14.4434H14.8848V20.3271H11.1201V14.4482H9.73828V9.49219C9.73828 9.27734 9.81641 9.0918 9.96289 8.94043C10.1143 8.78906 10.2998 8.71094 10.5146 8.71094H15.4902C15.6904 8.71094 15.8711 8.78906 16.0322 8.94043C16.1836 9.09668 16.2666 9.27734 16.2666 9.49219ZM11.3105 6.38184C11.3105 5.24414 11.8721 4.67285 12.9951 4.67285C14.1182 4.67285 14.6797 5.24414 14.6797 6.38184C14.6797 7.50488 14.1182 8.06641 12.9951 8.06641C11.8721 8.06641 11.3105 7.50488 11.3105 6.38184ZM12.9805 0.390625C19.9043 0.390625 25.1094 5.7666 25.1094 12.5C25.1094 19.6826 19.3232 24.6094 12.9805 24.6094C6.4375 24.6094 0.890625 19.2627 0.890625 12.5C0.890625 6.01074 6.00293 0.390625 12.9805 0.390625ZM13.0195 2.57324C7.24805 2.57324 3.07324 7.35352 3.07324 12.5C3.07324 17.8613 7.52637 22.4023 13.0195 22.4023C18.0586 22.4023 22.9219 18.4424 22.9219 12.5C22.9268 6.94336 18.5176 2.57324 13.0195 2.57324Z" fill="black"/>
</svg>
