<svg width="22" height="23" viewBox="0 0 22 23" fill="none" xmlns="http://www.w3.org/2000/svg">
<path d="M20.9452 17.5875L11.3505 22.3639C11.2373 22.4125 11.1154 22.4375 10.9923 22.4375C10.8692 22.4375 10.7473 22.4125 10.6342 22.3639L1.03894 17.5875C0.843628 17.4899 0.843628 17.3297 1.03894 17.2316L3.33679 16.09C3.45012 16.0414 3.57214 16.0164 3.69543 16.0164C3.81873 16.0164 3.94074 16.0414 4.05408 16.09L10.6342 19.3615C10.7473 19.4103 10.8691 19.4354 10.9923 19.4354C11.1155 19.4354 11.2374 19.4103 11.3505 19.3615L17.9305 16.09C18.0438 16.0414 18.1657 16.0164 18.2889 16.0164C18.4122 16.0164 18.5341 16.0414 18.6473 16.09L20.9452 17.234C21.1429 17.3297 21.1429 17.4899 20.9452 17.5875ZM20.9452 10.921L18.6473 9.77699C18.5341 9.72841 18.4122 9.70336 18.2889 9.70336C18.1657 9.70336 18.0438 9.72841 17.9305 9.77699L11.3505 13.0524C11.2372 13.1007 11.1154 13.1256 10.9923 13.1256C10.8692 13.1256 10.7474 13.1007 10.6342 13.0524L4.05408 9.77699C3.94074 9.72843 3.81873 9.70339 3.69543 9.70339C3.57214 9.70339 3.45012 9.72843 3.33679 9.77699L1.03894 10.921C0.843628 11.0187 0.843628 11.1793 1.03894 11.278L10.6342 16.0534C10.7473 16.1019 10.8692 16.127 10.9923 16.127C11.1154 16.127 11.2373 16.1019 11.3505 16.0534L20.9452 11.278C21.1429 11.1793 21.1429 11.0192 20.9452 10.921ZM1.03894 5.36829L10.6337 9.77699C10.8639 9.86733 11.1198 9.86733 11.35 9.77699L20.9452 5.36829C21.1405 5.27747 21.1405 5.12952 20.9452 5.03919L11.35 0.630989C11.1199 0.53967 10.8637 0.53967 10.6337 0.630989L1.03894 5.03919C0.841187 5.12952 0.841187 5.27747 1.03894 5.36829Z" fill="white"/>
</svg>
