<svg width="26" height="25" viewBox="0 0 26 25" fill="none" xmlns="http://www.w3.org/2000/svg">
<path d="M23.8584 0.0727661L8.23486 4.68654C7.91772 4.78616 7.64061 4.98433 7.44383 5.25225C7.24704 5.52016 7.14082 5.84386 7.14062 6.17628V18.9404C6.62898 18.8163 6.10462 18.752 5.57812 18.749C2.99023 18.749 0.890625 20.1484 0.890625 21.874C0.890625 23.5996 2.99023 24.999 5.57812 24.999C8.16602 24.999 10.2656 23.5996 10.2656 21.874V10.4639L22.7656 6.80177V15.8159C22.254 15.6913 21.7297 15.6269 21.2031 15.624C18.6152 15.624 16.5156 17.0234 16.5156 18.749C16.5156 20.4746 18.6152 21.874 21.2031 21.874C23.791 21.874 25.8906 20.4751 25.8906 18.749V1.56154C25.8904 1.31624 25.8324 1.07445 25.7214 0.855725C25.6104 0.637 25.4494 0.447489 25.2515 0.302528C25.0536 0.157568 24.8244 0.0612313 24.5824 0.0213152C24.3404 -0.0186009 24.0923 -0.000975129 23.8584 0.0727661Z" fill="black"/>
</svg>
